<svg width="20.869568" height="18.186966" viewBox="0 0 20.8696 18.187" fill="none" xmlns="http://www.w3.org/2000/svg" xmlns:xlink="http://www.w3.org/1999/xlink">
	<desc>
			Created with Pixso.
	</desc>
	<defs/>
	<path id="Vector" d="M20.22 14.89C21.08 15.64 21.08 16.86 20.22 17.62C19.78 17.99 19.22 18.18 18.65 18.18C18.08 18.18 17.52 17.99 17.08 17.62L10.43 11.82L3.78 17.62C3.34 17.99 2.78 18.18 2.21 18.18C1.64 18.18 1.08 17.99 0.64 17.62C-0.22 16.86 -0.22 15.64 0.64 14.89L7.3 9.09L0.64 3.29C-0.22 2.54 -0.22 1.32 0.64 0.56C1.51 -0.19 2.91 -0.19 3.78 0.56L10.43 6.36L17.08 0.56C17.95 -0.19 19.35 -0.19 20.22 0.56C21.08 1.32 21.08 2.54 20.22 3.29L13.56 9.09L20.22 14.89Z" fill="#2A2367" fill-opacity="1.000000" fill-rule="nonzero"/>
</svg>
